<?xml version="1.0" encoding="UTF-8"?>
<svg id="katman_1" xmlns="http://www.w3.org/2000/svg" version="1.1" viewBox="0 0 393.6 393.6">
  <!-- Generator: Adobe Illustrator 29.3.1, SVG Export Plug-In . SVG Version: 2.1.0 Build 151)  -->
  <defs>
    <style>
      .st0 {
        fill: #424243;
      }
    </style>
  </defs>
  <path class="st0" d="M196.8,0C88.3,0,0,88.3,0,196.8s88.3,196.8,196.8,196.8,196.8-88.3,196.8-196.8S305.3,0,196.8,0ZM382.2,182.9c.3,3.7.5,7.3.5,11.1l-.9-1.2-2.3-2.7-2.7-2.7h-4.5l1.8-4.5,3.2-.9,4.9,1.1ZM330.5,149.5v3.2l4.1,5,.9,2.7v5.5l-4.5,2.3h-4.5l-2.3-2.3-3.2-1.4-2.3-.5-2.3-.5c-2.3-.5-5.9-.5-5.9-.5l-1.8.5-2.7,1.4-3.6,1.4v1.8h-5.5l-3.2-1.8-4.5-3.6v-1.8h-2.7l-3.6-3.6h-2.3l-1.8-2.3-6.4-2.3h-6.4l2.3-6.4,3.2-2.3,2.7-3.2,3.2-4.1,2.3-1.4,2.3-1.8,3.2-.9,2.7,2.3,3.2,2.7,2.3,1.8,1.8,1.8,2.7,2.3.5,2.7-.9,2.9-.9,3.1,1.4,2.3,2.7-.5,2.3-.9,2.3-4h1.4l.5-2.9-1.4-1.8-1.4-2.3-1.4-2.7-.9-1.4c-.9-1.4-3.2-4.5-3.2-4.5h1.5c0,.1,4,.5,4,.5l1.8.9h3v2.3l3.7,3.2s2.4,4.1,3.8,5c1.4.9.9,3.8.9,3.8h1.8l3.6,2.6-.5-2.6,1.4-2.4.9-2.3c.9-2.3,0-3.2,0-3.2v-3.2l.9-1.8,5.9-5.9s2.7-.5,4.1,0c1.4.5,1.4,1.8,1.4,1.8h1.8l.5,2.3h7.7l2.7,2.7h2.3v4.5h-5.5v2.3h-11.4s-2.7,1.4-2.7,1.4c-2.7,1.4-1.8,4.1-1.8,4.1ZM76.8,55.3v-.5c3.4-2.8,6.7-5.4,10.1-7.9l-.6,2.9-1.4,4.4-2,4.1-6.1.7-1.7-.3,1.7-3.4ZM10.9,196.8c0-21.5,3.7-42.2,10.5-61.4v7.8l2,7.3v10.9l2.1,4.1v9.1h1.8v2.3l2.3,2.7,4.1-10.9v15.5l6.8,4.1h3.2l3.6,10.5,3.6,3.6,10.5,1.8h3.6v1.4h2.7l5.9,7.3,4.5,4.1,6.8,2.7h1.8l1.8,2.3,4.1,3.2,2.7,2.3v1.8l-2.7,16.8-.5,2.7-1.8,5.9-2.7,7.7,5,4.1h2.7v2.3l3.6,3.6s4.5,9.5,5,11.4c.5,1.8,5.5,9.5,5.5,9.5,0,0-1.8,1.8,0,3.6,1.8,1.8,2.3,3.6,2.3,3.6l2.3,7.3v6.4c.5,2.7,0,8.6,0,10s0,7.7.2,10c.2,2.3,0,8.2,0,8.2h1.6v7.7s2.3.9,2.3,3.6v7.7l2,4.8C55.8,336.9,10.9,272,10.9,196.8ZM196.8,382.7c-23.9,0-46.8-4.6-67.8-12.9.1-.3.3-.7.6-1.3l1.8-3.6s1.8-1.8,2.3-5.5c.5-3.6-1.8-3.6,0-6.8,1.8-3.2,2.7-5.5,2.7-5.5,0,0-3.2,0,0-1.4,3.2-1.4,10.9-6.4,10.9-6.4,0,0,3.6-5.9,4.1-7.7.5-1.8,0-6.4,0-6.4l5.5-7.7,8.2-1.4s1.8-1.8,3.2-2.7c1.4-.9,5-4.5,5-4.5,0,0,3.6-2.3,5-5,1.4-2.7,3.6-8.6,4.1-10.9.5-2.3,0-5,0-5,0,0,0,.5.2-2.3.3-2.7-1.2-6.8,0-8.2,1.2-1.4,3-4.1,3.9-5.5l.9-1.4v-7.3s3.2-3.2,0-4.5l-3.2-1.4-1.8-.9s-1.4-.5-2.7-1.4c-1.4-.9,1.4.5-1.4-.9-2.7-1.4-5-2.3-5-2.3l-7.7-4.8h-5.9v-4.8l-.9-3.2-1.4-2.7-16.4-11.8s-2.7.5-4.1-.5c-1.4-.9-15.5-5.9-15.5-5.9l-3.2-.5h-4.6s-2.3-1.4-2.3-1.4l-2.7.9-3.6,1.8v1.4h-2.3s-5-1.8-5-1.8l-3.2-3.6-4.1-3.6-2.3-3.2-1.8-.9-1.4-1.8-7.7-4.1,2.7-5-1.4-5s-2.7-.5-4.1-.9l-1.4-.5h-4.1l-1.8-.5h-5.5l-.9-5.9.9-2.7,1.4-3.6,2.3-1.4,7.7-2.3s.9-.5,4.1-.5h6.4l2.7,3.2s2.3.9,4.1,2.3q1.8,1.4,3.6,2.3c1.8.9,4.1,1.8,4.1,1.8l-.9-4.5,1.8-6.4-.5-7.3,6.4-1.8v-2.3l3.2-1.8,3.2-3.2,4.5-3.2.5-2.7v-3.6l.5-9.1,2.7-1.4,5.9-.9h2.3l2.3-.5,1.8-.5,2.3-.5,5.9-.9,1.8-1.4,2.4-1.9,1.1-.9-2.7-.7-3.1-.3h-4.1l-2.4-2.7,3.4-6.5h2.1l5.1-4.1,1.7,5.8,3.8,1.4c2.1,0,5.8,1,5.8,1h1.7l4.8-2.4v-1.7l-1.4-6.5-.3-3.1-7.8-8.5-2.7-4.4-2.4-4.1-1-2-1-2.7-4.4-3.1h-6.1l-4.1-1.7s1.4,3.8-1.4,0c-2.7-3.8-4.8-6.1-4.8-6.1h-1l-1.4-1.7h-3.4v2s-.7,3.4-.7,4.4-.3,2.7-.3,2.7c0,0,0,6.8-1,8.2-1,1.4-1.4,3.1-1.4,3.1l-2.7,5.1-3.8,1-1.7-.7-1.5-.7-5.7-2.7-3.8-5.5-2-2.7-.7-1.7-1.4-1.7-1.4-2.4v-3.1l2.4-3.8,1.7,2.4,1.7-4.1,2-1.7.3-2.4h10.6l1.4-1.7v-1.7l1.7-3.4,1-3.1s.3,0,3.1-2l2.7-2,1.4-1.7h3.4l.3,1.7v1.7l2.4,7.2v3.4l-.3,1.7,5.1,1.4h2.4s3.1-.3,4.8-.3h5.5l3.1-4.8-.3-3.1-2.7-4.1v-2.7l-3.4-2s.7-1.4-.7-3.7c-1.4-2.4-6.1-7.8-6.1-7.8h-1.4l-3.4-3.1s-1.7,2.7-5.1,0l-3.4-2.7s-1,2-2.4,0c-1.4-2-4.1-3.1-4.1-3.1h-1.4l-.7,1.7-3.1,3.4v1.7l-1.7,5.1-1.8,2.7v3.8l-2,.7-2.4.7-.3-2-1.7-2.4-.3-2.4-8.8-2c20.2-14.3,43.3-24.7,68.3-30.1l-2.2,1.4-4.4,2-2.4,3.4-1.7,3.1v3.1l2.7,2h9.5s1-.7,2.1,0c1,.7,2.7,2,2.7,2l.7,2,2,5.5v4.1l-1.7,2.7-.7,2.7.7,2.7v6.8l1.7,1.7v8.2s1.7,2,2.4,3.7c.7,1.7,0,3.8,0,3.8l3.4,2v3.4h2v2.4h3.8s2-3.1,2.7-4.1c.7-1,5.1-6.5,5.1-6.5l2.4-1s2.7-1.7,4-2l1.4-.3s5.5-2.7,6.5-3.4c1-.7,4.4-3.1,4.4-3.1l1.7-2.7,2.4-1.4,2-.7s2.4-.3,3.4-.7c1-.3,3.1-1,3.1-1l2.4-2.4v-3.7l5.1-.7v-2l2-1.9v-10.1l2.1-2v-1l3.4-2,1.7-2.4v-4.4l2.7-4.4,2-2,2-1,.5-.4c26,6.5,49.8,18.4,70.2,34.5h-1l-1.8,1.4c-1.8,1.4-2.7,0-2.7,0h-1.8l-3.2,2.7-3.6,5-2.3,4.9h-3.2l-2.7,5.1s-1.4.5-2.7,1.8c-1.4,1.4-2.7,7.3-2.7,7.3h-2.3l-1.6,2.7v2.2l-1.6,2.4v3.2h3.2l2.7,2.7,3.6,2.3h2.3l2.7-2.3h7.3l2.3-1.8.9-3.2,2.7-5.5v-3.6l1.4-3.1h2.3l2.6-5.1,2.9,5.1v5.4l.9,3.5.9,3.8-.9,2.7v1.8h-3.8l-2.1,3.2-3.6,3.2-6.4,1.4h-5.5l-6.4-.5h-2.7l-2.7,2.7s-1.4,1.4-3.2,2.7c-1.8,1.4-3.2,2.3-3.2,2.3l-1.8,2.3-1.8,2.7h-1.8l-3.2,4.1-5,1.4-4.1,1.8-2.9.9,2.5,2.3,4.5,1.4,1.8,3.6,3.2,2.3-.9,3.6-3.6.9c-3.6.9-5,.5-5,.5l-2.5-.5c-2.4-.5-3.5-1.4-3.5-1.4l-1.8.5-2.3,4.5-2,.9v1.8l.7,5.9-.7,1.8c-.7,1.8,3.4,3.2,3.4,3.2l6.2,4.5v1.8l-2.5,3.2-.5,2.3-5.4,7.7-3.5,3.2-4.7,4.1-5.5,3.2s-2.3,4.1-5,5.5c-2.7,1.4,0,3.6,0,3.6v13.7l3.6,6.3v2.3l2.3,2.3v2.3l4.5,8.2v2.3l4.7,3.2,2.2,1.4h4.5l2.7.5,2.5.5c2.6.5,3.4.5,4.7.9,1.4.5,7.3.5,7.3.5h7.3l3.2,1.4,3.6,5.5.5,1.8,2.3,5.5,3.6,8.2v7.3c0,3.6-.9,4.1-.9,4.1v3.2l.9,10,1.8,6.4.9,7.7.5,5.5,1.4,5.5,1.8,5.9.5,2.7v6.4l2.7,7.3,7.7,2.3,5-2.7,6.4-3.2,2.7-2.3s4.1-2.7,5.9-5c1.8-2.3,4.1-3.2,4.1-3.2l.5-2.3,2.7-7.3.5-2.7,1.4-3.6,3-2.7,2-4.5,1.8-2.7,1.8-3.2s0-3.2.9-5.5c.9-2.3.5-6.4.5-6.4v-2.3l1.8-4.5.9-4.5,2.3-5,.9-5,2.7-2.3,1.8-2.7,3.2-5.9,3.2-3.6,1.8-1.8s3.6-4.5,5-7.3c1.4-2.7,2.3,0,2.3,0v-2.3l-1.8-2.3-1.4-3.2h-8.6l-6.4-4.5-6.4-7.3-3.2-4.9-.9-1.3-.5-1.9,1.4-6.1v-5.3c0-1.8-.5-2.7-.5-2.7v-5l2.7-1.8,2.7,4.1s1.4,5,1.8,6.4c.5,1.4,2.3,4.4,2.3,4.4h1.4l.5,9.3,5.9,8.1,5.9-2.7h9.5l2.3-2.3,4.5-4.4.4-3.8c-.4,26.7-6.4,52.1-17,75h-1.8l-2.5,2.3-.9,1.8c-.9,1.8-2.7,5-2.7,5l-3.2,2.7-2.3,4.1c-2.3,4.1-1.3,1.4-.4,5.9.2,1,.3,1.8.4,2.4-33.3,50.5-90.5,84-155.4,84h0ZM382.7,197.6v-.8h0s0,0,0,0c0,.3,0,.6,0,.8Z"/>
</svg>