<?xml version="1.0" standalone="no"?>
<!DOCTYPE svg PUBLIC "-//W3C//DTD SVG 20010904//EN"
 "http://www.w3.org/TR/2001/REC-SVG-20010904/DTD/svg10.dtd">
<svg version="1.0" xmlns="http://www.w3.org/2000/svg"
 width="300.000000pt" height="240.000000pt" viewBox="0 0 300.000000 240.000000"
 preserveAspectRatio="xMidYMid meet">
<metadata>
Created by potrace 1.10, written by Peter Selinger 2001-2011
</metadata>
<g transform="translate(0.000000,240.000000) scale(0.100000,-0.100000)"
fill="#000000" stroke="none">
<path d="M1830 2370 c-79 -19 -178 -73 -256 -140 -28 -24 -38 -27 -81 -23 -28
3 -90 0 -139 -6 -227 -30 -421 -127 -575 -287 -100 -106 -166 -213 -204 -336
-14 -44 -24 -59 -46 -68 -50 -21 -73 -56 -80 -123 -7 -75 8 -115 50 -123 26
-5 28 -10 39 -88 40 -276 230 -551 459 -666 53 -27 50 -35 -7 -20 -60 16 -153
14 -188 -4 -58 -30 -109 -120 -88 -155 4 -6 -3 -13 -16 -15 -13 -3 -46 -10
-74 -15 -72 -14 -158 -48 -178 -70 -68 -75 83 -136 434 -178 185 -22 906 -25
1095 -5 330 36 495 85 495 146 0 56 -103 98 -319 130 -89 13 -93 15 -127 55
-44 51 -83 72 -148 80 l-50 6 85 42 c191 95 336 260 416 473 110 293 70 613
-106 844 -29 37 -51 69 -49 71 2 1 27 15 57 31 114 61 243 225 227 288 -9 35
-70 56 -164 56 -93 0 -172 -19 -268 -64 l-72 -34 29 55 c29 55 36 97 21 121
-18 28 -102 38 -172 22z m140 -49 c0 -27 -53 -124 -96 -176 -39 -48 -119 -105
-175 -125 -34 -12 -39 -11 -71 13 -19 15 -58 37 -87 50 l-53 23 70 65 c123
113 237 168 350 169 54 0 62 -2 62 -19z m400 -92 c41 -9 50 -14 50 -32 0 -37
-56 -122 -116 -175 -110 -98 -256 -154 -457 -174 -100 -10 -117 -14 -111 -28
13 -29 16 -116 6 -152 -8 -29 -7 -40 4 -49 16 -13 40 -86 31 -95 -3 -4 -23 8
-43 25 -21 17 -39 29 -41 27 -2 -1 2 -17 8 -35 15 -43 -1 -73 -58 -112 -121
-83 -276 -87 -416 -11 -94 51 -162 174 -141 257 6 26 5 28 -16 22 l-22 -6 23
25 c12 13 39 29 58 34 34 9 36 12 38 55 3 60 45 137 94 171 35 24 41 25 61 12
29 -19 76 -31 89 -22 5 3 -9 15 -33 27 -23 12 -44 28 -46 35 -3 11 0 12 16 3
11 -6 31 -11 43 -11 20 0 18 4 -17 36 l-39 35 63 -4 c80 -6 194 -59 260 -121
l48 -45 60 60 c192 196 417 288 604 248z m-888 -91 c-20 -20 -30 -22 -107 -19
-47 1 -85 0 -85 -4 0 -3 5 -15 10 -26 10 -18 6 -19 -107 -19 -176 0 -128 -24
60 -29 33 -1 35 -12 4 -26 -26 -12 -277 -7 -277 5 0 16 68 50 171 84 121 41
185 53 284 55 l69 1 -22 -22z m-293 -187 c-16 -20 -29 -41 -29 -48 0 -10 -38
-13 -164 -13 -150 0 -202 -8 -160 -24 9 -3 78 -6 154 -6 82 0 141 -4 145 -10
11 -18 -18 -21 -199 -18 l-179 3 54 52 c104 101 97 98 262 99 l146 1 -30 -36z
m959 -93 c22 -22 12 -28 -50 -28 -64 0 -68 7 -15 27 42 15 51 15 65 1z m-1018
-66 c0 -4 -16 -14 -35 -21 -20 -7 -45 -26 -57 -42 -22 -29 -22 -29 -125 -29
l-103 0 6 24 c4 19 0 28 -20 41 -14 10 -37 15 -50 13 -17 -4 -23 -1 -19 9 4
10 47 13 204 13 109 0 199 -4 199 -8z m1083 -37 c15 -25 27 -48 27 -50 0 -3
-103 -5 -230 -5 l-230 0 0 50 0 50 203 0 202 0 28 -45z m-1448 -45 c-23 -45
-18 -65 29 -119 56 -63 66 -110 38 -174 -24 -53 -70 -91 -145 -117 -57 -20
-87 -18 -87 6 0 16 66 81 91 89 11 4 19 11 19 17 0 5 -8 7 -17 4 -20 -8 -33
10 -33 46 0 31 -15 45 -27 24 -8 -15 -144 -88 -151 -81 -7 7 18 43 40 57 13 8
43 22 68 32 122 48 139 66 115 122 -8 20 -15 46 -15 57 0 29 39 67 67 67 23 0
23 -1 8 -30z m275 -46 c0 -8 -10 -14 -22 -15 -98 -3 -157 -7 -180 -13 -21 -6
-29 -4 -38 13 -6 12 -9 25 -6 29 2 4 58 6 125 4 97 -3 121 -6 121 -18z m1228
1 c3 -20 -3 -20 -243 -20 -213 0 -245 2 -243 15 3 13 39 16 228 20 124 3 232
6 240 5 8 0 16 -9 18 -20z m-1598 -65 c9 -17 6 -23 -22 -40 -18 -10 -33 -18
-35 -17 -1 2 3 20 9 40 13 41 32 48 48 17z m386 -7 c3 -16 9 -38 14 -50 9 -22
7 -23 -30 -23 -45 0 -103 25 -136 58 -13 12 -32 22 -43 22 -11 0 -23 5 -26 10
-4 6 33 10 104 10 l111 0 6 -27z m1247 -24 l16 -52 -222 7 c-264 7 -283 10
-291 41 -3 13 -9 30 -12 39 -6 14 19 16 243 16 l249 0 17 -51z m-1403 -39 c14
-34 6 -93 -17 -124 -14 -20 -14 -19 -7 14 10 44 10 66 1 108 -8 40 6 42 23 2z
m165 -70 c55 -23 101 -44 103 -45 2 -2 -15 -27 -38 -56 -22 -30 -43 -64 -46
-77 -8 -29 -15 -26 -109 38 l-72 51 18 36 c11 21 19 53 19 71 0 23 4 32 13 29
6 -3 57 -24 112 -47z m702 29 c9 -9 6 -20 -10 -43 -12 -17 -23 -33 -24 -34 -1
-2 -11 -1 -23 3 -20 6 -20 7 5 37 14 16 25 34 25 39 0 12 14 11 27 -2z m111
-14 c-71 -48 -100 -164 -58 -232 l20 -33 -24 0 c-59 0 -81 124 -38 208 25 47
73 82 112 82 23 0 22 -1 -12 -25z m452 6 c0 -18 -9 -20 -112 -23 -106 -3 -138
3 -138 23 0 5 48 10 108 12 59 1 115 4 125 5 11 1 17 -5 17 -17z m-293 -11
c41 -25 60 -55 68 -105 12 -80 -52 -133 -171 -143 -63 -5 -63 -5 -83 29 -43
71 -10 168 74 220 38 24 72 24 112 -1z m303 -82 l6 -48 -102 0 -102 0 -6 36
c-4 19 -10 42 -13 50 -5 12 11 14 103 12 l109 -3 5 -47z m-1707 30 c2 -7 -11
-30 -29 -51 -19 -20 -34 -46 -34 -57 0 -23 -37 -28 -71 -10 -43 23 -11 72 71
109 53 24 57 25 63 9z m591 -34 c14 -5 10 -13 -19 -41 -30 -29 -75 -100 -75
-118 0 -3 9 -1 19 5 31 16 33 12 11 -30 -23 -46 -49 -149 -50 -200 l-1 -35
-17 30 c-12 22 -17 53 -17 110 0 68 5 90 31 145 25 54 86 140 99 140 2 0 11
-3 19 -6z m472 -31 c13 -8 24 -18 24 -22 0 -4 -29 -5 -64 -3 -84 5 -155 -18
-195 -64 -25 -28 -36 -33 -56 -28 -32 8 -32 16 6 59 21 23 40 35 58 35 14 1
55 11 91 24 69 25 97 25 136 -1z m-790 -25 c19 -18 34 -36 34 -40 0 -4 -38 -8
-85 -8 -47 0 -85 3 -85 6 0 12 75 68 98 73 2 1 19 -13 38 -31z m466 -28 c-10
-18 -29 -31 -58 -38 -28 -8 -50 -21 -61 -38 -16 -25 -16 -29 -1 -55 14 -24 14
-30 2 -40 -20 -16 -17 -56 5 -78 10 -10 19 -31 19 -47 0 -30 41 -74 69 -74 8
0 37 -16 64 -36 56 -41 122 -64 183 -64 38 0 43 -3 69 -47 89 -146 110 -309
47 -347 -29 -16 -70 -73 -70 -95 0 -7 14 1 31 19 74 73 170 90 266 46 63 -30
88 -65 88 -124 0 -34 -5 -48 -24 -63 -38 -31 -49 -25 -44 25 6 49 -18 110 -49
127 -18 10 -19 9 -4 -20 9 -17 16 -55 16 -89 0 -57 -1 -60 -30 -72 -21 -9 -41
-10 -63 -4 -30 9 -32 13 -37 64 -6 54 -23 100 -39 100 -4 0 -4 -24 0 -52 13
-93 14 -91 -31 -85 -90 12 -139 89 -109 172 19 53 10 76 -64 152 -41 42 -63
56 -116 72 -261 79 -358 346 -225 613 18 36 38 69 44 73 5 3 10 11 10 16 0 6
-10 3 -22 -5 -12 -9 -26 -16 -31 -16 -14 0 15 31 46 50 25 16 32 16 81 2 l54
-15 -16 -27z m978 -5 c0 -13 -16 -15 -107 -13 -74 2 -108 7 -111 16 -3 9 23
12 107 12 93 0 111 -2 111 -15z m-685 -62 c53 -54 90 -113 100 -159 5 -25 1
-38 -18 -60 -22 -25 -32 -29 -97 -32 l-72 -4 12 23 c7 12 12 46 12 75 l0 52
41 6 c31 5 38 9 27 16 -8 5 -31 10 -50 10 -49 0 -80 10 -80 25 0 8 -11 27 -25
43 l-25 30 33 15 c69 32 71 31 142 -40z m71 17 c18 -44 39 -60 77 -60 25 0 25
0 29 -117 3 -109 -4 -172 -20 -174 -68 -5 -99 -5 -108 2 -6 5 -29 15 -50 23
-31 12 -34 15 -15 15 47 2 103 25 127 54 46 54 26 135 -60 240 -45 55 -45 57
-21 57 20 0 28 -8 41 -40z m-694 -14 c14 -10 16 -19 8 -47 l-10 -34 -227 2
-228 1 -3 46 -3 46 223 0 c167 -1 227 -4 240 -14z m1298 -32 l-5 -47 -122 -1
-121 -1 -11 35 c-16 53 0 60 144 60 l121 0 -6 -46z m-1007 19 c-25 -9 -13 -22
15 -17 15 3 49 -2 75 -10 46 -14 48 -14 42 5 -9 28 12 23 32 -8 11 -17 17 -44
17 -77 -2 -121 -97 -196 -179 -142 -26 17 -28 24 -14 75 2 9 -5 17 -16 19 -41
9 -40 47 1 63 31 11 31 27 0 39 -13 5 -27 13 -30 18 -10 16 51 58 64 44 3 -2
-1 -7 -7 -9z m732 -108 c10 -52 16 -98 12 -102 -8 -7 -146 -32 -187 -32 l-25
-1 3 105 3 105 57 1 c31 0 66 4 77 9 37 16 42 10 60 -85z m-1040 4 c4 -6 5
-12 4 -14 -2 -2 -102 -5 -222 -7 -201 -3 -217 -2 -217 15 0 16 17 17 214 17
141 0 217 -4 221 -11z m545 -45 c0 -66 -30 -114 -70 -114 -5 0 2 19 15 43 13
23 26 61 30 85 9 54 25 45 25 -14z m750 38 c0 -16 -10 -17 -107 -15 -58 2
-108 5 -111 7 -2 3 -1 9 3 15 4 7 47 11 111 11 93 0 104 -2 104 -18z m-1269
-92 l16 -50 -212 0 -212 0 -17 43 c-9 23 -16 46 -16 50 0 4 96 7 213 7 l212 0
16 -50z m1255 25 c-19 -76 -18 -75 -106 -75 -72 0 -80 2 -80 19 0 10 -3 33 -6
50 l-6 31 102 0 102 0 -6 -25z m-216 -97 c0 -86 -38 -143 -107 -159 -34 -8
-40 -6 -53 14 -8 12 -25 31 -37 43 -17 15 -23 33 -23 63 0 41 0 41 38 41 20 1
66 7 102 14 36 8 68 14 73 15 4 0 7 -14 7 -31z m-986 -13 c3 -8 2 -16 -2 -18
-4 -3 -94 -5 -200 -5 -107 -1 -202 -4 -213 -7 -19 -6 -39 19 -25 32 3 3 84 5
178 4 95 -1 187 2 203 7 34 10 51 6 59 -13z m1153 -2 c6 -16 -15 -35 -29 -27
-5 3 -26 5 -47 6 -45 0 -67 11 -57 27 11 17 126 12 133 -6z m-687 -28 c30 -8
75 -15 100 -16 40 0 42 -1 20 -10 -45 -18 -154 -12 -210 12 -50 21 -61 34 -37
42 12 4 26 1 127 -28z m-446 -32 c4 -9 -1 -32 -11 -50 l-18 -33 -176 0 -177 0
-16 25 c-9 14 -23 36 -32 50 l-16 25 220 0 c198 0 221 -2 226 -17z m1109 4
c-56 -88 -54 -87 -116 -87 -55 0 -57 1 -41 17 9 10 23 32 31 50 13 32 15 33
74 33 46 0 58 -3 52 -13z m-387 -38 c44 -21 84 -71 84 -104 0 -12 -9 -5 -29
21 -28 40 -81 82 -81 66 0 -5 9 -17 21 -28 51 -46 62 -108 29 -161 -19 -32
-74 -68 -89 -59 -5 3 -11 25 -14 48 -3 23 -23 77 -44 120 -35 70 -38 80 -24
92 37 32 89 33 147 5z m-604 -164 c24 -20 57 -44 75 -53 l32 -15 -34 -39 c-42
-46 -44 -71 -9 -148 14 -32 24 -66 22 -77 -8 -43 -163 -77 -328 -71 l-85 3 -3
32 c-2 23 5 40 28 67 44 49 12 50 -37 1 -31 -31 -35 -40 -30 -71 6 -35 5 -36
-21 -29 -57 14 -56 70 1 133 32 35 -3 28 -41 -9 -21 -21 -32 -42 -34 -67 l-3
-37 -18 27 c-18 27 -18 28 0 65 49 99 159 108 386 32 48 -17 95 -33 104 -36 9
-4 -5 13 -30 36 -26 24 -59 69 -74 100 -25 49 -28 67 -28 146 1 50 7 103 13
119 l13 30 29 -51 c16 -28 48 -67 72 -88z m876 88 c37 -7 39 -13 13 -37 -15
-14 -24 -15 -40 -7 -11 6 -43 11 -71 11 -35 0 -50 4 -48 12 6 16 69 38 93 32
11 -3 35 -7 53 -11z m-1045 -18 c1 -6 -45 -12 -118 -15 -66 -3 -126 -9 -133
-13 -13 -9 -52 17 -52 35 0 12 299 5 303 -7z m-105 -45 l103 0 -3 -47 c-2 -27
-6 -47 -10 -45 -5 1 -36 2 -71 2 -59 0 -66 2 -114 43 -56 46 -66 63 -30 53 12
-3 68 -6 125 -6z m1083 -40 c-42 -38 -62 -50 -87 -50 -18 0 -40 -3 -50 -7 -14
-5 -16 -3 -9 13 4 10 10 31 13 47 3 22 7 25 18 16 11 -9 14 -8 14 4 0 13 14
17 63 20 34 2 69 4 77 5 8 0 -9 -21 -39 -48z m-954 -126 c20 -57 20 -59 -1
-56 -20 4 -116 81 -116 94 0 9 72 15 89 7 7 -3 20 -24 28 -45z m826 47 c17 -6
17 -8 -1 -24 -17 -16 -115 -57 -134 -57 -5 0 -8 5 -8 10 0 6 11 10 25 10 14 0
25 5 25 12 0 14 50 57 65 57 6 0 18 -4 28 -8z m-487 -16 c18 -13 15 -14 -28
-15 -45 0 -57 7 -41 23 11 12 48 8 69 -8z m117 -79 c15 -19 27 -37 27 -40 0
-8 -209 -7 -237 0 -20 6 -37 49 -26 66 2 5 50 8 106 8 l102 0 28 -34z m27 -95
c-1 -20 -26 -26 -115 -26 -88 0 -114 6 -115 25 0 3 52 6 115 6 63 0 115 -2
115 -5z m-6 -99 c5 -18 28 -50 52 -72 39 -36 49 -40 96 -40 31 -1 61 -7 72
-15 26 -19 79 -19 116 0 17 9 40 13 53 10 31 -8 84 36 95 78 11 42 37 44 173
17 125 -26 192 -53 187 -76 -7 -34 -156 -73 -380 -99 -441 -51 -1021 -38
-1383 32 -94 18 -175 50 -175 69 0 19 47 41 142 66 104 27 145 27 183 3 45
-30 276 -39 414 -15 61 10 80 18 110 46 l36 34 100 -3 99 -2 10 -33z"/>
<path d="M2202 2180 c-74 -26 -166 -80 -259 -148 -92 -69 -176 -141 -182 -155
-5 -14 147 -2 224 18 81 21 188 75 257 130 60 48 121 129 116 155 -5 23 -92
24 -156 0z m104 -37 c-32 -62 -166 -157 -279 -198 -66 -24 -189 -44 -172 -28
69 64 205 158 293 202 56 28 162 63 170 56 2 -2 -3 -16 -12 -32z"/>
<path d="M1232 1907 c-22 -26 -42 -87 -42 -126 0 -22 -5 -41 -12 -44 -7 -2 6
-6 30 -8 26 -3 41 -1 39 6 -2 5 2 25 10 43 13 32 13 32 -14 32 l-28 0 33 21
c27 18 33 27 30 53 -3 34 -27 46 -46 23z"/>
<path d="M1490 1900 c-37 -37 -51 -113 -31 -165 7 -16 1 -26 -23 -47 l-31 -27
50 15 c49 15 91 15 130 -1 19 -7 19 -7 4 10 -15 15 -15 20 -3 44 22 42 18 50
-33 53 l-48 3 53 19 c56 21 57 22 43 59 -22 57 -74 74 -111 37z m60 -44 c0
-12 -41 -46 -55 -46 -13 0 -3 32 15 50 21 21 40 19 40 -4z m-32 -98 c16 -16
15 -28 -3 -28 -8 0 -15 2 -15 4 0 2 -3 11 -6 20 -7 19 7 21 24 4z"/>
<path d="M1204 1695 c-19 -15 -18 -16 9 -40 33 -29 30 -55 -6 -55 -31 0 -47
18 -47 53 0 16 -4 26 -10 22 -28 -17 5 -105 40 -105 6 0 10 -9 10 -21 0 -12
12 -33 28 -48 15 -16 37 -40 48 -54 25 -30 62 -42 100 -33 35 9 109 85 125
129 11 32 16 36 37 30 48 -12 12 16 -40 32 -48 14 -82 13 -44 -1 26 -10 19
-20 -23 -32 -54 -17 -89 -15 -139 8 -49 22 -54 50 -12 60 23 5 26 11 22 39 -2
8 -55 31 -72 31 -3 0 -15 -7 -26 -15z m123 -170 c-9 -26 -92 -9 -104 21 -3 9
-1 19 6 23 14 9 102 -30 98 -44z m123 -23 c0 -16 -47 -53 -79 -62 -57 -16 -83
13 -39 44 35 25 55 21 32 -5 -16 -18 -12 -17 20 5 39 26 66 33 66 18z"/>
<path d="M745 1508 c-25 -14 -44 -39 -45 -57 0 -7 15 0 35 18 21 18 47 31 63
31 21 0 24 2 12 10 -20 13 -40 12 -65 -2z"/>
<path d="M1921 1424 c-39 -32 -59 -94 -43 -129 23 -49 105 -56 164 -13 23 16
28 27 28 59 0 100 -78 143 -149 83z m103 -26 c40 -57 6 -108 -71 -108 -43 0
-43 0 -43 37 0 26 8 45 27 65 32 34 66 36 87 6z"/>
<path d="M1420 1130 c0 -10 41 -30 61 -30 18 0 8 17 -16 28 -32 15 -45 15 -45
2z"/>
<path d="M1410 1061 c0 -10 40 -19 58 -13 7 2 10 8 6 13 -7 12 -64 12 -64 0z"/>
</g>
</svg>
