<!DOCTYPE svg PUBLIC "-//W3C//DTD SVG 1.1//EN" "http://www.w3.org/Graphics/SVG/1.1/DTD/svg11.dtd">
<!-- Uploaded to: SVG Repo, www.svgrepo.com, Transformed by: SVG Repo Mixer Tools -->
<svg fill="#766f6f" height="800px" width="800px" version="1.1" id="Capa_1" xmlns="http://www.w3.org/2000/svg" xmlns:xlink="http://www.w3.org/1999/xlink" viewBox="0 0 477.273 477.273" xml:space="preserve" stroke="#766f6f">
<g id="SVGRepo_bgCarrier" stroke-width="0"/>
<g id="SVGRepo_tracerCarrier" stroke-linecap="round" stroke-linejoin="round"/>
<g id="SVGRepo_iconCarrier"> <path d="M450.658,266.295c-14.725-11.251-34.852-20.991-59.874-28.994v-13.08c0-83.895-68.253-152.147-152.147-152.147 S86.489,140.327,86.489,224.222v13.08c-25.023,8.003-45.15,17.744-59.875,28.994C9.203,279.599,0,294.957,0,310.71 c0,26.677,25.834,51.057,72.743,68.647c44.438,16.664,103.353,25.841,165.894,25.841s121.456-9.177,165.894-25.841 c46.909-17.591,72.743-41.97,72.743-68.647C477.273,294.957,468.07,279.599,450.658,266.295z M238.637,88.074 c75.072,0,136.147,61.076,136.147,136.147v18.98c0,0.038-0.001,0.076,0,0.115v10.022c-12.075,6.358-55.131,25.473-136.147,25.473 c-81.048,0-124.106-19.13-136.147-25.471v-29.119C102.489,149.15,163.564,88.074,238.637,88.074z M398.912,364.376 c-42.686,16.007-99.605,24.823-160.275,24.823s-117.59-8.815-160.275-24.823C38.729,349.515,16,329.955,16,310.71 c0-20.715,26.136-41.517,70.489-56.56v3.853c0,0.012,0,0.024,0,0.036v52.671c0,2.675,1.337,5.173,3.563,6.656 c1.848,1.232,46.434,30.173,148.585,30.173c33.396,0,64.133-3.108,91.356-9.237c4.311-0.971,7.019-5.251,6.048-9.562 c-0.97-4.31-5.249-7.019-9.562-6.047c-26.072,5.87-55.627,8.847-87.843,8.847c-81.033,0-124.097-19.126-136.147-25.47v-34.894 c19.645,8.888,63.224,23.635,136.147,23.635s116.503-14.747,136.147-23.635v34.911c-2.449,1.301-6.167,3.128-11.195,5.201 c-4.085,1.683-6.032,6.359-4.349,10.444c1.684,4.086,6.358,6.033,10.444,4.349c11.368-4.685,16.939-8.316,17.538-8.714 c2.225-1.484,3.562-3.981,3.562-6.656v-56.56c44.353,15.044,70.489,35.845,70.489,56.56 C461.273,329.955,438.544,349.515,398.912,364.376z"/> </g>
</svg>